<svg width="14" height="13" viewBox="0 0 14 13" fill="none" xmlns="http://www.w3.org/2000/svg">
<path d="M10.4998 11.375H4.08317V4.33329L8.1665 0.541626L8.89567 1.21871C8.96373 1.2819 9.01963 1.36767 9.06338 1.476C9.10713 1.58433 9.129 1.68815 9.129 1.78746V1.97704L8.48734 4.33329H12.2498C12.5609 4.33329 12.8332 4.44163 13.0665 4.65829C13.2998 4.87496 13.4165 5.12774 13.4165 5.41663V6.49996C13.4165 6.56315 13.4068 6.63086 13.3873 6.70308C13.3679 6.77531 13.3484 6.84301 13.329 6.90621L11.579 10.725C11.4915 10.9055 11.3457 11.059 11.1415 11.1854C10.9373 11.3118 10.7234 11.375 10.4998 11.375ZM5.24984 10.2916H10.4998L12.2498 6.49996V5.41663H6.99984L7.78734 2.43746L5.24984 4.79371V10.2916ZM4.08317 4.33329V5.41663H2.33317V10.2916H4.08317V11.375H1.1665V4.33329H4.08317Z" fill="#989CA0"/>
</svg>
