<svg width="31" height="31" viewBox="0 0 31 31" fill="none" xmlns="http://www.w3.org/2000/svg">
<path d="M25.3167 27.125L17.1792 18.9875C16.5333 19.5042 15.7906 19.9132 14.951 20.2146C14.1115 20.516 13.2181 20.6667 12.2708 20.6667C9.92431 20.6667 7.93837 19.854 6.31302 18.2286C4.68767 16.6033 3.875 14.6174 3.875 12.2708C3.875 9.92431 4.68767 7.93837 6.31302 6.31302C7.93837 4.68767 9.92431 3.875 12.2708 3.875C14.6174 3.875 16.6033 4.68767 18.2286 6.31302C19.854 7.93837 20.6667 9.92431 20.6667 12.2708C20.6667 13.2181 20.516 14.1115 20.2146 14.951C19.9132 15.7906 19.5042 16.5333 18.9875 17.1792L27.125 25.3167L25.3167 27.125ZM12.2708 18.0833C13.8854 18.0833 15.2578 17.5182 16.388 16.388C17.5182 15.2578 18.0833 13.8854 18.0833 12.2708C18.0833 10.6562 17.5182 9.28385 16.388 8.15365C15.2578 7.02344 13.8854 6.45833 12.2708 6.45833C10.6562 6.45833 9.28385 7.02344 8.15365 8.15365C7.02344 9.28385 6.45833 10.6562 6.45833 12.2708C6.45833 13.8854 7.02344 15.2578 8.15365 16.388C9.28385 17.5182 10.6562 18.0833 12.2708 18.0833Z" fill="#009DDF"/>
</svg>
