<svg width="26" height="26" viewBox="0 0 26 26" fill="none" xmlns="http://www.w3.org/2000/svg">
<path d="M12.9998 22.75L11.429 21.3417C9.60539 19.6986 8.09775 18.2813 6.90609 17.0896C5.71442 15.8979 4.7665 14.8282 4.06234 13.8802C3.35817 12.9323 2.86616 12.0611 2.5863 11.2667C2.30643 10.4723 2.1665 9.65975 2.1665 8.8292C2.1665 7.13198 2.73525 5.71462 3.87275 4.57712C5.01025 3.43961 6.42761 2.87086 8.12484 2.87086C9.06373 2.87086 9.95748 3.06948 10.8061 3.4667C11.6547 3.86392 12.3859 4.42364 12.9998 5.14586C13.6137 4.42364 14.345 3.86392 15.1936 3.4667C16.0422 3.06948 16.9359 2.87086 17.8748 2.87086C19.5721 2.87086 20.9894 3.43961 22.1269 4.57712C23.2644 5.71462 23.8332 7.13198 23.8332 8.8292C23.8332 9.65975 23.6932 10.4723 23.4134 11.2667C23.1335 12.0611 22.6415 12.9323 21.9373 13.8802C21.2332 14.8282 20.2853 15.8979 19.0936 17.0896C17.9019 18.2813 16.3943 19.6986 14.5707 21.3417L12.9998 22.75ZM12.9998 19.825C14.7332 18.2723 16.1596 16.9407 17.279 15.8302C18.3984 14.7198 19.2832 13.7539 19.9332 12.9323C20.5832 12.1108 21.0346 11.3795 21.2873 10.7386C21.5401 10.0976 21.6665 9.46114 21.6665 8.8292C21.6665 7.74587 21.3054 6.84309 20.5832 6.12087C19.8609 5.39864 18.9582 5.03753 17.8748 5.03753C17.0262 5.03753 16.2408 5.27677 15.5186 5.75524C14.7964 6.23371 14.2998 6.84309 14.029 7.58337H11.9707C11.6998 6.84309 11.2033 6.23371 10.4811 5.75524C9.75886 5.27677 8.97345 5.03753 8.12484 5.03753C7.0415 5.03753 6.13873 5.39864 5.4165 6.12087C4.69428 6.84309 4.33317 7.74587 4.33317 8.8292C4.33317 9.46114 4.45956 10.0976 4.71234 10.7386C4.96511 11.3795 5.4165 12.1108 6.0665 12.9323C6.7165 13.7539 7.60123 14.7198 8.72067 15.8302C9.84011 16.9407 11.2665 18.2723 12.9998 19.825Z" fill="#E8EAED"/>
</svg>
